# xmcd
#
# Track frame offsets:
#	150
#	16200
#	36686
#	51175
#	65190
#	77471
#	98245
#	115714
#	136725
#	152090
#	165258
#	180282
#	198121
#	215944
#	238540
#	258321
#	283483
#	303934
#	322631
#	341776
#
# Disc length: 4760 seconds
#
# Revision: 0
# Processed by: cddbd v1.5.2PL0 Copyright (c) Steve Scherf et al.
# Submitted via: dBpowerAMP V4.0
#
DISCID=14129614
DTITLE=Aaron Neville - Gold [CD2]
DYEAR=2008
DGENRE=Country
TTITLE0=All My Life
TTITLE1=Everybody Plays the Fool
TTITLE2=Close Your Eyes (With Linda Ronstadt)
TTITLE3=Louisiana 1927
TTITLE4=Don't Go, Please Stay
TTITLE5=Angola Bound
TTITLE6=Warm Your Heart
TTITLE7=Don't Take Away My Heaven
TTITLE8=The Bells
TTITLE9=You Never Can Tell
TTITLE10=The Grand Tour
TTITLE11=Betcha by Golly, Wow
TTITLE12=Save the Last Dance for Me
TTITLE13=Use Me
TTITLE14=Say What's in My Heart
TTITLE15=To Make Me Who I Am
TTITLE16=The Very Thought of You (With Linda Ronstadt)
TTITLE17=People Get Ready (With David Sanborn and Art Neville)
TTITLE18=The First Time I Ever Saw Your Face (With Linda Ronstadt)
TTITLE19=When A Man Loves A Woman
EXTD=
EXTT0=
EXTT1=
EXTT2=
EXTT3=
EXTT4=
EXTT5=
EXTT6=
EXTT7=
EXTT8=
EXTT9=
EXTT10=
EXTT11=
EXTT12=
EXTT13=
EXTT14=
EXTT15=
EXTT16=
EXTT17=
EXTT18=
EXTT19=
PLAYORDER=
